<svg xmlns="http://www.w3.org/2000/svg"  viewBox="0 0 48 48" width="48px" height="48px"><path fill="#fff" d="M12,37l14.1-14.1"/><path fill="#ffcc80" d="M9.1 21.5H29V38.5H9.1z" transform="rotate(-44.992 19.015 29.955)"/><path fill="#ffcc80" d="M24,11l-6.1-0.1c-1.1,0-2,0.3-2.7,1c-0.6,0.5-1.1,1.4-1.2,2.5L13,19c0,3.7,0.1,6.5,2.4,9.1 c0.1,0.2,0.3,0.3,0.4,0.5l4.6,4.6c3.4,3.4,8.9,3.5,12.3,0.2c0,0,3.2-3.2,7.2-7.2L24,11z"/><path fill="#ffcc80" d="M34.4,23.5c-1.1,1.1-1,2.8,0.1,3.9c1.1,1.1,2.9,1.1,3.9,0.1l2.8-2.8c1.1-1.1,1-2.8-0.1-3.9 c-1.1-1.1-2.9-1.1-3.9-0.1L34.4,23.5z"/><path fill="#ffcc80" d="M30.4,19.6c-1.1,1.1-1.1,2.8,0,3.9s2.9,1.1,3.9,0.1l4.9-4.9c1.1-1.1,1-2.8-0.1-3.9 c-1.1-1.1-2.9-1.1-3.9-0.1L30.4,19.6z"/><path fill="#ffcc80" d="M26.4 15.7c-1.1 1.1-1.1 2.8 0 3.9 1.1 1.1 2.9 1.1 3.9.1l6.3-6.3c1.1-1.1 1-2.8-.1-3.9-1.1-1.1-2.9-1.1-3.9-.1L26.4 15.7zM23.2 10.9c-1.1 1.1-1.1 2.8 0 3.9 1.1 1.1 2.9 1.1 3.9.1l4.1-4.1c1.1-1.1 1-2.8-.1-3.9s-2.9-1.1-3.9-.1L23.2 10.9z"/><path fill="#ffebee" d="M35.3 24c-.8.8-.8 2 0 2.7.7.7 2 .7 2.7-.1C38.7 25.9 36.1 23.3 35.3 24M31.3 20.1c-.8.8-.8 2-.1 2.7.7.7 2 .7 2.7-.1C34.8 21.9 32.1 19.3 31.3 20.1"/><path fill="#ff6e40" d="M12 16h-2c0-5.6 3.4-9 9-9v2C14.6 9 12 11.6 12 16zM27 40v-2c6.4 0 11.1-7.5 11.2-7.5l1.7 1.1C39.6 31.9 34.5 40 27 40zM33.3 41.9l-.6-1.9L33 41l-.3-.9c0 0 2.8-1 5.6-3.8l1.4 1.4C36.6 40.8 33.4 41.9 33.3 41.9z"/><path fill="#f2a86b" d="M38.5 27.5c-1.1 1.1-2.8 1-3.9-.1-1.1-1.1-1.1-2.9-.1-3.9-.7.7-1.6.9-2.5.7-.5 1.6 0 3.3 1.2 4.5.8.8 1.7 1.2 2.7 1.3C37.2 28.8 38.5 27.5 38.5 27.5zM23 11c.5.1 1.2.8 1.6 1.1l4 4c1.1 1.1 1.1 2.9 0 4s-2.9 1.1-4 0l-2.7-2.7.1 2.7 1.3 1.3c1.8 1.8 4.8 1.8 6.6 0 1.8-1.8 1.2-4.1-.7-6 0 0 .6.6-1.3-1.3C25.3 11.5 23 11 23 11z"/><path fill="#f2a86b" d="M34.5 23.5c-1.1 1.1-2.8 1-3.9-.1-1-1-1.1-2.7-.2-3.8l-2.5 2.5c.2.9.6 1.9 1.4 2.6.8.8 1.7 1.2 2.7 1.3C33.2 24.8 34.5 23.5 34.5 23.5zM31.2 10.8l-5.3 2.7 1.3 1.3L31.2 10.8z"/><path fill="#f2a86b" d="M36.6 13.5l-6.6 4 .5 2.2L36.6 13.5zM20 31c0 .6-.4 1-1 1s-1-.4-1-1 .4-1 1-1S20 30.4 20 31z"/><path fill="#f2a86b" d="M23.2,18.7l-1.3-1.3L21,17.3c0,0,2.2,7.6-2.7,13l1.3,1.5C23.9,27.3,23.7,21.5,23.2,18.7z"/></svg>