<svg xmlns="http://www.w3.org/2000/svg"  viewBox="0 0 64 64" width="64px" height="64px"><path fill="#acabb1" d="M52,23.86V59a2.006,2.006,0,0,1-2,2H14a2.006,2.006,0,0,1-2-2V23.96L32,7Z"/><polygon fill="#898890" points="52 23.86 52 24.17 34 9 14 25.96 12 27.65 12 23.96 32 7 52 23.86"/><path fill="#ff9811" d="M60.34,25.66a2,2,0,1,1-2.57,3.06L52,23.86,32,7,12,23.96,6.23,28.85a2.01,2.01,0,0,1-3.02-.52,2.1,2.1,0,0,1,.53-2.62L30.72,3.08a1.982,1.982,0,0,1,2.56-.01Z"/><path fill="#c6c5ca" d="M60.53,57H37.47A8.736,8.736,0,0,0,37,59.85V61H61V59.85A8.736,8.736,0,0,0,60.53,57Z"/><path fill="#898890" d="M55.66,51.62,52,50a3,3,0,0,1-6,0l-3.66,1.62A8.974,8.974,0,0,0,37.47,57H60.53A8.974,8.974,0,0,0,55.66,51.62Z"/><circle cx="49" cy="28" r="1" fill="#898890"/><path fill="#898890" d="M35,41H34V37a6,6,0,0,0-12,0v4H21a1,1,0,0,0-1,1V52a1,1,0,0,0,1,1H35a1,1,0,0,0,1-1V42A1,1,0,0,0,35,41Zm-9,0V37a2,2,0,0,1,4,0v4Z"/><path fill="#e6e7e8" d="M32,35v4H28V35a2,2,0,0,0-4,0v4H20V35a6,6,0,0,1,12,0Z"/><path fill="#ff9811" d="M33,39H19a1,1,0,0,0-1,1V50a1,1,0,0,0,1,1H33a1,1,0,0,0,1-1V40A1,1,0,0,0,33,39Z"/><path fill="#898890" d="M52,46v4a3,3,0,0,1-6,0V46Z"/><path fill="#787680" d="M52,46v2.19a5.961,5.961,0,0,1-6,0V46Z"/><path fill="#898890" d="M55,35v6a5.985,5.985,0,0,1-3,5.19,5.961,5.961,0,0,1-6,0A5.985,5.985,0,0,1,43,41V35a6,6,0,0,1,6-6,5.857,5.857,0,0,1,3,.81,5.752,5.752,0,0,1,1.24.95A5.944,5.944,0,0,1,55,35Z"/><path fill="#ffc477" d="M52,35H46a3,3,0,0,0,0,6h6a3,3,0,0,0,0-6Z"/><path d="M56.06,50.71,53,49.35V46.74A7.01,7.01,0,0,0,56,41V35a7.01,7.01,0,0,0-3-5.74V26.01l4.13,3.48a3,3,0,0,0,3.86-4.6h-.01L33.93,2.31a2.981,2.981,0,0,0-3.85,0L3.1,24.95a3.071,3.071,0,0,0-.74,3.89,2.976,2.976,0,0,0,2.08,1.43,2.921,2.921,0,0,0,.5.05,2.986,2.986,0,0,0,1.93-.71L11,26.11V59a3.009,3.009,0,0,0,3,3H61a1,1,0,0,0,1-1V59.85A10,10,0,0,0,56.06,50.71Zm-.81,1.82A8.034,8.034,0,0,1,58.99,56H39.01a8.058,8.058,0,0,1,3.73-3.47l2.53-1.11a3.986,3.986,0,0,0,7.46,0ZM47,50V47.71a7.042,7.042,0,0,0,4,0V50a2,2,0,0,1-4,0Zm2-4a4.987,4.987,0,0,1-4.95-4.53A3.926,3.926,0,0,0,46,42h6a3.926,3.926,0,0,0,1.95-.53A4.987,4.987,0,0,1,49,46Zm3-6H46a2,2,0,0,1,0-4h6a2,2,0,0,1,0,4Zm1.95-5.47A3.926,3.926,0,0,0,52,34H46a3.926,3.926,0,0,0-1.95.53,4.969,4.969,0,0,1,9.9,0ZM5.58,28.08a.986.986,0,0,1-.81.22,1,1,0,0,1-.7-.49,1.083,1.083,0,0,1,.31-1.33L31.36,3.84A1.025,1.025,0,0,1,32,3.61a1,1,0,0,1,.64.23L59.7,26.43a1,1,0,0,1-1.28,1.53L32.64,6.24a.987.987,0,0,0-1.29,0ZM36,60H14a1,1,0,0,1-1-1V24.42L32,8.31,51,24.32v3.97h-.03A2.85,2.85,0,0,0,51,28a2,2,0,0,0-4,0,2.85,2.85,0,0,0,.03.29A7,7,0,0,0,42,35v6a7.01,7.01,0,0,0,3,5.74v2.61l-3.07,1.36A10.01,10.01,0,0,0,36,59.85Zm24-.15V60H38v-.15A7.63,7.63,0,0,1,38.24,58H59.76A7.63,7.63,0,0,1,60,59.85Z"/><rect width="2" height="2" x="46" y="37"/><rect width="2" height="2" x="50" y="37"/><path d="M33,38V35a7,7,0,0,0-14,0v3a2.006,2.006,0,0,0-2,2V50a2.006,2.006,0,0,0,2,2H33a2.006,2.006,0,0,0,2-2V40A2.006,2.006,0,0,0,33,38ZM21,35a5,5,0,0,1,10,0v3H29V35a3,3,0,0,0-6,0v3H21Zm6,0v3H25V35a1,1,0,0,1,2,0Zm6,15H19V40H33Z"/><path d="M26,42a1.994,1.994,0,0,0-1,3.722V48h2V45.722A1.994,1.994,0,0,0,26,42Z"/></svg>