<svg xmlns="http://www.w3.org/2000/svg"  viewBox="0 0 64 64" width="50px" height="50px"><path fill="#c0c7cc" d="M53.5,34.321a3.417,3.417,0,0,0-3.106-3.4,4.709,4.709,0,0,0-4.18-6.889,4.625,4.625,0,0,0-.7.058,4.711,4.711,0,0,0-6.845-6.458,5.567,5.567,0,0,0-9.817-1.582A3.428,3.428,0,0,0,23.5,18.893c0,.064.015.124.019.187a4.686,4.686,0,0,0-5.964,5.209,3.849,3.849,0,0,0-3.47,6.817,5.995,5.995,0,0,0-.429,9.535,5.568,5.568,0,1,0,7,8.659,4.265,4.265,0,0,0,2.911,2.084,5.136,5.136,0,0,0,9.9.984,4.713,4.713,0,0,0,8.887-2.189,4.791,4.791,0,0,0-.029-.512,4.215,4.215,0,0,0,3.283-5.35,3.847,3.847,0,0,0,3.774-6.636,3.43,3.43,0,0,0,4.115-3.36Z"/><circle cx="44.391" cy="18.396" r="3" fill="#ffdbac"/><path fill="#7cb2f8" d="M46.748,32.767l.83-5.437L56.6,19.907,55.1,17.856,47.269,22.73l-6.92-1.056a2,2,0,0,0-2.279,1.675l-1.207,7.908Z"/><circle cx="12.412" cy="40.24" r="3" fill="#ffcf94"/><path fill="#6ea0de" d="M16.386,54.25l-3.063-4.568L2,46.8l.493-2.5,9.155,1.086,5.815-3.9a2,2,0,0,1,2.775.548l4.454,6.645Z"/><rect width="10" height="9" x="51.378" y="4.953" fill="#63758c" transform="rotate(-171.317 56.378 9.453)"/><circle cx="34" cy="42.25" r="3" fill="#ffdbac"/><path d="M16.527,23.047a4.854,4.854,0,0,0-3.971,8.038,7.029,7.029,0,0,0-1.254,1.7l1.769.93a5.057,5.057,0,0,1,1.584-1.788,1,1,0,0,0-.017-1.655A2.849,2.849,0,0,1,17.2,25.226a1,1,0,0,0,1.34-1.08,3.7,3.7,0,0,1,4.7-4.105,1,1,0,0,0,1.276-1.007c0-.031-.014-.111-.018-.141a2.427,2.427,0,0,1,3.789-2.011,1,1,0,0,0,1.371-.239,4.564,4.564,0,0,1,7.511.159l1.668-1.1A6.562,6.562,0,0,0,28.6,14.793a4.43,4.43,0,0,0-5.994,3.114A5.74,5.74,0,0,0,16.527,23.047Z"/><path d="M54.5,34.321a4.4,4.4,0,0,0-1.939-3.648l-1.122,1.656A2.4,2.4,0,0,1,52.5,34.321,2.449,2.449,0,0,1,49.583,36.7a1,1,0,0,0-.8,1.779,2.829,2.829,0,0,1,1.147,2.271,2.853,2.853,0,0,1-3.939,2.642,1,1,0,0,0-1.343,1.193,3.252,3.252,0,0,1,.139.879,3.288,3.288,0,0,1-2.65,3.221,1,1,0,0,0-.8,1.09,3.606,3.606,0,0,1,.023.4,3.713,3.713,0,0,1-7,1.723,1.019,1.019,0,0,0-.952-.532,1,1,0,0,0-.872.655,4.153,4.153,0,0,1-3.887,2.725,4.106,4.106,0,0,1-2.919-1.208l-1.412,1.416a6.094,6.094,0,0,0,4.331,1.792A6.162,6.162,0,0,0,33.6,54.22a5.714,5.714,0,0,0,9.749-3.808A5.3,5.3,0,0,0,46.784,45.6a4.876,4.876,0,0,0,5.145-4.849,4.8,4.8,0,0,0-.532-2.2A4.437,4.437,0,0,0,54.5,34.321Z"/><path d="M48.345,19a4,4,0,1,0-7.151,1.791l-.693-.105A3,3,0,0,0,37.082,23.2l-1.208,7.908a1,1,0,0,0,.837,1.14l9.886,1.51a.961.961,0,0,0,.151.012,1,1,0,0,0,.988-.849l.773-5.059,8.728-7.179a1,1,0,0,0,.171-1.365L56.146,17.6l.39-2.556,3.954.6a1.122,1.122,0,0,0,.152.011,1,1,0,0,0,.988-.848l1.358-8.9a1,1,0,0,0-.837-1.14L52.266,3.262a1,1,0,0,0-.744.182,1,1,0,0,0-.4.655L49.768,13a1,1,0,0,0,.836,1.14l3.955.6-.383,2.511-7.121,4.437-.345-.053A3.973,3.973,0,0,0,48.345,19ZM42.413,18.1a2,2,0,0,1,1.977-1.7,1.929,1.929,0,0,1,.3.023A2,2,0,1,1,42.413,18.1ZM51.9,12.309,52.952,5.39,60.86,6.6,59.8,13.517Zm-4.778,11.41a1,1,0,0,0,.68-.14l7.039-4.385.4.542-8.293,6.822a1,1,0,0,0-.353.621l-.68,4.448L38,30.419,39.059,23.5a.994.994,0,0,1,.4-.655,1.008,1.008,0,0,1,.743-.183Z"/><path d="M16.387,55.25a1,1,0,0,0,.555-.169l8.307-5.568a1,1,0,0,0,.274-1.388L21.068,41.48a3,3,0,0,0-4.162-.822l-.58.389c0-.011.008-.021.01-.032a4,4,0,1,0-4.7,3.149c.011,0,.022,0,.034,0l-.274.184L2.611,43.308a.989.989,0,0,0-1.1.8l-.493,2.5a1,1,0,0,0,.734,1.163l10.953,2.79,2.849,4.25A1,1,0,0,0,16.387,55.25Zm-5.637-13.9a2,2,0,0,1,1.657-3.115,2.082,2.082,0,0,1,.392.038,2,2,0,1,1-2.049,3.077Zm2.82,7.359L3.164,46.062,3.3,45.4l8.235.977a.986.986,0,0,0,.675-.162l5.816-3.9a1,1,0,0,1,1.385.275l3.9,5.814-6.646,4.454-2.5-3.737A.994.994,0,0,0,13.57,48.713Z"/><path d="M34.006,46.248a4,4,0,0,0,3.317-6.226h0a4,4,0,1,0-3.316,6.226Zm-1.12-5.659a2,2,0,1,1-.547,2.775A1.986,1.986,0,0,1,32.886,40.589Z"/><polygon points="25.465 31.957 26.879 30.543 28.293 31.957 29.707 30.543 28.293 29.129 29.707 27.715 28.293 26.301 26.879 27.715 25.465 26.301 24.051 27.715 25.465 29.129 24.051 30.543 25.465 31.957"/><rect width="2" height="7.001" x="2.548" y="14.724" transform="rotate(-27.409 3.548 18.224)"/><rect width="2" height="2" x="5.54" y="22.995" transform="rotate(-27.416 6.54 23.995)"/><rect width="7" height="2.001" x="56.736" y="54.272" transform="rotate(-59.756 60.236 55.272)"/><rect width="2" height="1.999" x="55.96" y="59.888" transform="rotate(-59.727 56.96 60.888)"/><path d="M19.984,1.541a3.512,3.512,0,0,0-3.1-.318,3.472,3.472,0,0,0-2.117,2.242l1.91.592a1.494,1.494,0,0,1,.908-.962,1.528,1.528,0,0,1,1.351.147,1.473,1.473,0,0,1,.677,1.289,1.505,1.505,0,0,1-.931,1.357,5.076,5.076,0,0,0-3.029,3.161l-.422,1.364,1.91.592.423-1.364a3.117,3.117,0,0,1,1.882-1.906,3.5,3.5,0,0,0,.54-6.194Z"/><rect width="2" height="2" x="14.296" y="12.575" transform="rotate(-72.786 15.296 13.576)"/><rect width="2.001" height="3" x="46.758" y="52.02" transform="rotate(-25.564 47.758 53.521)"/><rect width="2" height="3" x="49.467" y="49.078" transform="rotate(-69.175 50.467 50.578)"/></svg>