<svg xmlns="http://www.w3.org/2000/svg"  viewBox="0 0 64 64" width="64px" height="64px"><rect width="32" height="30" x="30" y="31" fill="#f9c170" rx="4" ry="4"/><rect width="20" height="4" x="36" y="27" fill="#f9c170"/><polygon fill="#faa108" points="56 28 36 30 36 27 56 27 56 28"/><rect width="28" height="8" x="32" y="19" fill="#fc756b" rx="1" ry="1"/><path fill="#fd412d" d="M40.56,19H33a1,1,0,0,0-1,1v6a1,1,0,0,0,1,1h5.47A34.67,34.67,0,0,1,40.56,19Z"/><rect width="32" height="16" x="30" y="38" fill="#70dda8"/><circle cx="39" cy="46" r="4" fill="#fc756b"/><path fill="#fd412d" d="M56,43H51a1,1,0,0,1,0-2h5a1,1,0,0,1,0,2Z"/><path fill="#fd412d" d="M51,47H49a1,1,0,0,1,0-2h2a1,1,0,0,1,0,2Z"/><path fill="#fd412d" d="M57,47H55a1,1,0,0,1,0-2h2a1,1,0,0,1,0,2Z"/><path fill="#fd412d" d="M55,51H49a1,1,0,0,1,0-2h6a1,1,0,0,1,0,2Z"/><path fill="#d6332b" d="M37,19v2a1,1,0,0,1-2,0V19"/><path fill="#d6332b" d="M35,27V25a1,1,0,0,1,2,0v2"/><path fill="#d6332b" d="M42,19v2a1,1,0,0,1-2,0V19"/><path fill="#d6332b" d="M40,27V25a1,1,0,0,1,2,0v2"/><path fill="#d6332b" d="M47,19v2a1,1,0,0,1-2,0V19"/><path fill="#d6332b" d="M45,27V25a1,1,0,0,1,2,0v2"/><path fill="#d6332b" d="M52,19v2a1,1,0,0,1-2,0V19"/><path fill="#d6332b" d="M50,27V25a1,1,0,0,1,2,0v2"/><path fill="#d6332b" d="M57,19v2a1,1,0,0,1-2,0V19"/><path fill="#d6332b" d="M55,27V25a1,1,0,0,1,2,0v2"/><path fill="#faa108" d="M38.08,31H34a4,4,0,0,0-4,4v3h8.18A51.47,51.47,0,0,1,38.08,31Z"/><path fill="#faa108" d="M30,54v3a4,4,0,0,0,4,4H45a52.36,52.36,0,0,1-3.22-7Z"/><path fill="#40bf7c" d="M40.35,49.75A4,4,0,1,1,38.65,42c-.21-1.36-.37-2.7-.47-4H30V54H41.77C41.25,52.63,40.78,51.21,40.35,49.75Z"/><path fill="#fd412d" d="M38.65,42a4,4,0,1,0,1.7,7.72c-.29-1-.57-2.07-.82-3.13C39.17,45.08,38.88,43.55,38.65,42Z"/><path fill="#d6332b" d="M42.44,44A3.64,3.64,0,0,0,41,42.56L35.56,48A3.64,3.64,0,0,0,37,49.44Z"/><path fill="#fd412d" d="M30,57V35a4,4,0,0,1,.73-2.29H5a1,1,0,0,0-1,1V60a1,1,0,0,0,1,1H34A4,4,0,0,1,30,57Z"/><path fill="#d6332b" d="M30,57V35a4,4,0,0,1,.73-2.29H27.88L23,61H34A4,4,0,0,1,30,57Z"/><path fill="#d6332b" d="M11.84,49a54.36,54.36,0,0,1-7-16.29,1,1,0,0,0-.88,1V60a1,1,0,0,0,1,1H21.76A56.11,56.11,0,0,1,11.84,49Z"/><path fill="#40bf7c" d="M27,39H22.51a1,1,0,0,1,0-2H27a1,1,0,0,1,0,2Z"/><path fill="#40bf7c" d="M26,43H21.51a1,1,0,0,1,0-2H26a1,1,0,0,1,0,2Z"/><path fill="#2b8955" d="M15,57H8a1,1,0,0,1,0-2h7a1,1,0,0,1,0,2Z"/><path fill="#40bf7c" d="M25,57H21a1,1,0,0,1,0-2h4a1,1,0,0,1,0,2Z"/><path fill="#40bf7c" d="M30,46H21a1,1,0,0,0,0,2h9Z"/><path fill="#40bf7c" d="M30,51H8a1,1,0,0,0,0,2H30Z"/><path fill="#2b8955" d="M28,38a1,1,0,0,0-.87-1l-.34,2H27A1,1,0,0,0,28,38Z"/><path fill="#2b8955" d="M27,42a1,1,0,0,0-.57-.89L26.11,43A1,1,0,0,0,27,42Z"/><path fill="#2b8955" d="M26,56a1,1,0,0,0-1-1H24l-.34,2H25A1,1,0,0,0,26,56Z"/><polygon fill="#2b8955" points="30 46 25.59 46 25.24 48 30 48 30 46"/><path fill="#2b8955" d="M8,51a1,1,0,0,0,0,2h6.56c-.48-.65-1-1.32-1.42-2Z"/><polygon fill="#2b8955" points="30 51 24.72 51 24.38 53 30 53 30 51"/><path fill="#70dda8" d="M33,27a1,1,0,0,1-1-1V20a1,1,0,0,1,1-1h4.32V5a2,2,0,0,0-2-2H8.83a2,2,0,0,0-2,2V32.71h23.9A4,4,0,0,1,34,31h2V27Z"/><path fill="#40bf7c" d="M12.17,10.17a4,4,0,1,0,5.66,0A4,4,0,0,0,12.17,10.17Z"/><path fill="#40bf7c" d="M30.83,15.83a4,4,0,1,0-5.66,0A4,4,0,0,0,30.83,15.83Z"/><path fill="#40bf7c" d="M12.17,22.17a4,4,0,1,0,5.66,0A4,4,0,0,0,12.17,22.17Z"/><path fill="#40bf7c" d="M30.83,27.83a4,4,0,1,0-5.66,0A4,4,0,0,0,30.83,27.83Z"/><path fill="#40bf7c" d="M21.9,28.84C14.69,20.13,11.15,10.28,11.92,3H8.83a2,2,0,0,0-2,2V32.71H25.45C24.23,31.5,23,30.22,21.9,28.84Z"/><rect width="8.49" height="8.49" x="8.51" y="37" fill="#70dda8"/><path fill="#40bf7c" d="M10.07,37H8.51v8.49H17V43.93A8,8,0,0,1,10.07,37Z"/><path fill="#f9c170" d="M13.17,9.17a4,4,0,1,0,5.66,0A4,4,0,0,0,13.17,9.17Z"/><path fill="#f9c170" d="M31.83,14.83a4,4,0,1,0-5.66,0A4,4,0,0,0,31.83,14.83Z"/><path fill="#f9c170" d="M13.17,21.17a4,4,0,1,0,5.66,0A4,4,0,0,0,13.17,21.17Z"/><path fill="#f9c170" d="M32,21.38l-.17-.21a4,4,0,1,0,0,5.66c.11-.12.2-.24.3-.37A.91.91,0,0,1,32,26Z"/><path fill="#faa108" d="M15.17,12.83a4,4,0,0,1-.81-4.47,4.12,4.12,0,0,0-1.19.81,4,4,0,0,0,5.66,5.66,4.12,4.12,0,0,0,.81-1.19A4,4,0,0,1,15.17,12.83Z"/><path fill="#faa108" d="M28.17,12.83a4,4,0,0,1-.81-4.47,4.12,4.12,0,0,0-1.19.81,4,4,0,0,0,5.66,5.66,4.12,4.12,0,0,0,.81-1.19A4,4,0,0,1,28.17,12.83Z"/><path fill="#faa108" d="M15.17,24.83a4,4,0,0,1-.81-4.47,4.12,4.12,0,0,0-1.19.81,4,4,0,0,0,5.66,5.66,4.12,4.12,0,0,0,.81-1.19A4,4,0,0,1,15.17,24.83Z"/><path fill="#faa108" d="M32,25.86a4,4,0,0,1-4.64-5.5,4.12,4.12,0,0,0-1.19.81,4,4,0,0,0,5.66,5.66c.11-.12.2-.24.3-.37A.91.91,0,0,1,32,26Z"/><path fill="#d6850d" d="M19.44,10a4.3,4.3,0,0,0-.61-.81A4.3,4.3,0,0,0,18,8.56L12.56,14a4.3,4.3,0,0,0,.61.81,4.3,4.3,0,0,0,.81.61Z"/><path fill="#d6850d" d="M32.44,10a4.3,4.3,0,0,0-.61-.81A4.3,4.3,0,0,0,31,8.56L25.56,14a4.3,4.3,0,0,0,.61.81,4.3,4.3,0,0,0,.81.61Z"/><path fill="#d6850d" d="M19.44,22A3.64,3.64,0,0,0,18,20.56L12.56,26A3.64,3.64,0,0,0,14,27.44Z"/><path fill="#d6850d" d="M31,20.56,25.56,26A3.64,3.64,0,0,0,27,27.44l5-5v-1l-.17-.21A4.3,4.3,0,0,0,31,20.56Z"/></svg>