<svg xmlns="http://www.w3.org/2000/svg"  viewBox="0 0 48 48" width="48px" height="48px"><path fill="#546E7A" d="M33,5H15l-5,9l2,26h24l2-26L33,5L33,5z"/><path fill="#8BC34A" d="M41,43H7c2-5,9-7,17-7S39,38,41,43z"/><path fill="#8BC34A" d="M34.5,38.971l0.111-0.789c0.05-0.289,0.091-0.585,0.149-0.863c0.115-0.555,0.243-1.105,0.412-1.646c0.322-1.081,0.766-2.123,1.311-3.092c0.552-0.967,1.208-1.861,1.967-2.642C39.211,29.164,40.055,28.477,41,28c-0.802,0.682-1.433,1.521-1.955,2.396c-0.52,0.88-0.906,1.817-1.182,2.772c-0.269,0.959-0.429,1.936-0.478,2.914c-0.032,0.487-0.026,0.978-0.01,1.464c0.008,0.243,0.033,0.47,0.047,0.702l0.077,0.781L34.5,38.971z"/><path fill="#8BC34A" d="M35.521 40.746c.291-.867.632-1.575 1.031-2.312.402-.721.854-1.412 1.389-2.042.528-.629 1.143-1.197 1.832-1.629.69-.432 1.465-.7 2.227-.764-.703.309-1.286.779-1.737 1.334-.451.557-.788 1.184-1.042 1.842-.258.656-.432 1.345-.557 2.037-.118.68-.198 1.426-.186 2.041L35.521 40.746zM32.52 37.76c.211-.566.387-1.264.515-1.92.129-.667.212-1.344.228-2.023C33.281 32.48 33.067 31.041 32 30c.667.299 1.268.83 1.711 1.469.455.637.778 1.362 1.03 2.104.249.742.423 1.508.543 2.281.117.784.197 1.529.196 2.387L32.52 37.76z"/><g><path fill="#78909C" d="M31.262,33.787C31.279,32.635,31.188,30.375,29,28c1.877-0.626,3.634,0.07,4.844,0.907l1.096-14.238L31.234,8H16.765l-3.705,6.669l1.571,20.427C17.299,34.378,20.434,34,24,34c2.64,0,5.039,0.21,7.191,0.608C31.236,34.187,31.26,33.862,31.262,33.787z"/></g><g><path fill="#37474F" d="M17.972 19.171h-1.044V22H15v-8h3.147c.95 0 1.691.212 2.226.632.534.421.803 1.015.803 1.782 0 .558-.114 1.018-.34 1.385-.224.365-.577.661-1.057.89l1.67 3.228V22h-2.066L17.972 19.171zM16.928 17.687h1.22c.367 0 .642-.096.827-.289.186-.192.278-.461.278-.807s-.094-.616-.28-.812c-.188-.198-.462-.295-.825-.295h-1.22V17.687zM25 22h-2v-8h2V22zM28.928 19.286V22H27v-8h3.192c.611 0 1.151.114 1.622.338.472.226.836.545 1.094.961.259.417.388.889.388 1.415 0 .78-.279 1.404-.838 1.871-.559.468-1.325.701-2.3.701H28.928zM28.928 17.797h1.265c.372 0 .657-.094.854-.28.195-.188.295-.451.295-.791 0-.374-.101-.672-.303-.896-.202-.222-.477-.336-.825-.339h-1.285V17.797z"/></g></svg>