<svg xmlns="http://www.w3.org/2000/svg"  viewBox="0 0 48 48" width="64px" height="64px"><g data-name="9-racing"><path fill="#ef4136" d="M45,18H44l-1.62506-2.43762A8,8,0,0,0,35.71851,12h-9.677a8,8,0,0,0-5.31488,2.02069L14,20A19.64187,19.64187,0,0,0,3.807,22.903,5.93047,5.93047,0,0,0,1,27.98389V31H47V20A2,2,0,0,0,45,18Z"/><path fill="#be3c36" d="M12,25a19.97174,19.97174,0,0,1,.64075-4.94238A19.80115,19.80115,0,0,0,3.807,22.903,5.93047,5.93047,0,0,0,1,27.98389V31H12.9184A19.98611,19.98611,0,0,1,12,25Z"/><path fill="#6ee1ef" d="M37,12H26a7.80872,7.80872,0,0,0-5,2c-2,2-7,6-7,6H37l4-6S38,12,37,12Z"/><path fill="#5fb1d7" d="M25.81335,12.00708A7.69684,7.69684,0,0,0,21,14c-2,2-7,6-7,6h7.65558A19.92241,19.92241,0,0,1,25.81335,12.00708Z"/><circle cx="14" cy="31" r="5" fill="#808285"/><circle cx="38" cy="31" r="5" fill="#808285"/><circle cx="14" cy="31" r="2" fill="#d1d3d4"/><circle cx="38" cy="31" r="2" fill="#d1d3d4"/><path d="M20,31a6,6,0,1,0-6,6A6.00657,6.00657,0,0,0,20,31ZM10,31a4,4,0,1,1,4,4A4.00427,4.00427,0,0,1,10,31Z"/><path d="M38,25a6,6,0,1,0,6,6A6.00657,6.00657,0,0,0,38,25Zm0,10a4,4,0,1,1,4-4A4.00427,4.00427,0,0,1,38,35Z"/><path d="M45,17h-.46484L43.207,15.00781A8.98018,8.98018,0,0,0,35.71875,11H26.042A8.99336,8.99336,0,0,0,20.0625,13.273l-6.44727,5.731A20.72967,20.72967,0,0,0,3.28711,22.04834,6.96468,6.96468,0,0,0,0,27.98389V31a.99974.99974,0,0,0,1,1H6a1,1,0,0,0,0-2H2V27.98389a4.95238,4.95238,0,0,1,2.32617-4.22657A18.69948,18.69948,0,0,1,14,21H37a1.00028,1.00028,0,0,0,.832-.44531l3.31012-4.96515c.13879.1709.27728.34222.40082.52765l1.625,2.4375A1.00028,1.00028,0,0,0,44,19h1a1.001,1.001,0,0,1,1,1V30a1,1,0,0,0,0,2h1a.99974.99974,0,0,0,1-1V20A3.00328,3.00328,0,0,0,45,17ZM21.39062,14.76807A6.99706,6.99706,0,0,1,26.042,13H29v6H16.62994ZM36.46484,19H31V13h4.71875a6.98405,6.98405,0,0,1,3.93555,1.21582Z"/><path d="M31,31a.99974.99974,0,0,0-1-1H22a1,1,0,0,0,0,2h8A.99974.99974,0,0,0,31,31Z"/><path d="M27,40a1,1,0,0,0,0,2h2a1,1,0,0,0,0-2Z"/><path d="M24,41a.99974.99974,0,0,0-1-1H5a1,1,0,0,0,0,2H23A.99974.99974,0,0,0,24,41Z"/><path d="M41,44H39a1,1,0,0,0,0,2h2a1,1,0,0,0,0-2Z"/><path d="M47,44H45a1,1,0,0,0,0,2h2a1,1,0,0,0,0-2Z"/><path d="M35,44H17a1,1,0,0,0,0,2H35a1,1,0,0,0,0-2Z"/><path d="M45,4h2a1,1,0,0,0,0-2H45a1,1,0,0,0,0,2Z"/><path d="M23,4H41a1,1,0,0,0,0-2H23a1,1,0,0,0,0,2Z"/><path d="M33,6a1,1,0,0,0,0,2h2a1,1,0,0,0,0-2Z"/><path d="M41,6H39a1,1,0,0,0,0,2h2a1,1,0,0,0,0-2Z"/><path d="M11,8H29a1,1,0,0,0,0-2H11a1,1,0,0,0,0,2Z"/></g></svg>