<svg fill="#000000" xmlns="http://www.w3.org/2000/svg"  viewBox="0 0 50 50" width="50px" height="50px"><path d="M 25.21875 2 C 20.179678 2 15.902712 3.3042702 12.845703 5.6894531 C 9.7886946 8.0746361 8 11.572966 8 15.662109 C 8 18.984035 9.0364056 21.804401 11.148438 23.933594 C 13.260468 26.062786 16.363949 27.491205 20.427734 28.373047 L 20.421875 28.373047 L 26.052734 29.621094 C 28.768642 30.229555 30.571608 30.967777 31.605469 31.785156 C 32.639371 32.602535 33 33.412606 33 34.685547 C 33 36.112534 32.320432 37.380316 31.017578 38.363281 C 29.714724 39.346246 27.777217 40 25.398438 40 C 20.415273 40 17.204553 37.716651 16.609375 34.800781 A 1.0001 1.0001 0 0 0 15.628906 34 L 8 34 A 1.0001 1.0001 0 0 0 7.0039062 35.083984 C 7.3354636 39.036878 9.300009 42.341939 12.443359 44.574219 C 15.58671 46.806498 19.869687 48 24.917969 48 C 30.348522 48 34.839174 46.718462 38.019531 44.294922 C 41.199889 41.871382 43 38.272417 43 34 C 43 30.611677 41.968834 27.737697 39.742188 25.560547 C 37.516212 23.384052 34.198607 21.911 29.681641 20.929688 L 29.677734 20.929688 L 24.679688 19.826172 C 22.052177 19.246396 20.309257 18.549509 19.318359 17.789062 C 18.327462 17.028616 18 16.303947 18 15.140625 C 18 13.652031 18.607061 12.527559 19.804688 11.662109 C 21.002313 10.79666 22.841902 10.244141 25.1875 10.244141 C 27.352435 10.244141 29.063934 10.761189 30.283203 11.615234 C 31.502473 12.46928 32.264597 13.649471 32.550781 15.183594 A 1.0001 1.0001 0 0 0 33.533203 16 L 41 16 A 1.0001 1.0001 0 0 0 41.998047 14.927734 C 41.725245 11.119296 39.870077 7.8332655 36.910156 5.5585938 C 33.950236 3.283922 29.9102 2 25.21875 2 z M 25.21875 4 C 29.5453 4 33.141827 5.185203 35.691406 7.1445312 C 37.948626 8.8791839 39.346393 11.230436 39.8125 14 L 34.197266 14 C 33.701836 12.376739 32.814362 10.946467 31.429688 9.9765625 C 29.802957 8.8371081 27.670565 8.2441406 25.1875 8.2441406 C 22.532098 8.2441406 20.278937 8.8514649 18.632812 10.041016 C 16.986689 11.230566 16 13.057219 16 15.140625 C 16 16.794303 16.70821 18.305697 18.101562 19.375 C 19.494916 20.444303 21.484504 21.169072 24.25 21.779297 L 29.25 22.882812 A 1.0001 1.0001 0 0 0 29.253906 22.884766 C 33.562856 23.820454 36.510397 25.197635 38.34375 26.990234 C 40.177109 28.782788 41 30.998323 41 34 C 41 37.727583 39.531533 40.628618 36.806641 42.705078 C 34.081748 44.781538 30.032416 46 24.917969 46 C 20.186251 46 16.317463 44.87208 13.601562 42.943359 C 11.189779 41.230608 9.7144968 38.880558 9.2011719 36 L 15.005859 36 C 16.231655 39.598781 20.1891 42 25.398438 42 C 28.141658 42 30.505511 41.25452 32.222656 39.958984 C 33.939802 38.663449 35 36.77256 35 34.685547 C 35 32.937488 34.284045 31.352418 32.847656 30.216797 C 31.411267 29.081176 29.349327 28.310461 26.490234 27.669922 A 1.0001 1.0001 0 0 0 26.488281 27.667969 L 20.855469 26.419922 A 1.0001 1.0001 0 0 0 20.851562 26.417969 C 17.021387 25.586905 14.302328 24.271495 12.568359 22.523438 C 10.834391 20.775379 10 18.584184 10 15.662109 C 10 12.141253 11.454727 9.309442 14.074219 7.265625 C 16.69371 5.221808 20.525822 4 25.21875 4 z"/></svg>