<svg fill="#000000" xmlns="http://www.w3.org/2000/svg"  viewBox="0 0 50 50" width="50px" height="50px"><path d="M 39.5 0 C 36.464844 0 34 2.464844 34 5.5 C 34 8.535156 36.464844 11 39.5 11 C 42.535156 11 45 8.535156 45 5.5 C 45 2.464844 42.535156 0 39.5 0 Z M 39.5 11 L 38 11 C 35.75 11 33.90625 12.84375 33.90625 15.09375 L 33.90625 26.5625 L 32.625 25.84375 C 32.617188 25.839844 32.601563 25.847656 32.59375 25.84375 C 32.136719 25.582031 31.558594 25.496094 31.09375 25.625 C 31.082031 25.628906 31.074219 25.652344 31.0625 25.65625 L 24.5 22.1875 L 22.03125 15.84375 C 21.625 14.765625 20.707031 13.863281 19.46875 13.5625 L 19.46875 13.53125 L 19.40625 13.53125 L 13.90625 12.0625 L 13.84375 12.03125 L 13.84375 12.0625 C 13.253906 11.878906 12.671875 11.820313 12.09375 11.9375 C 11.511719 12.058594 10.929688 12.332031 10.46875 12.71875 C 10.457031 12.726563 10.449219 12.742188 10.4375 12.75 L 3.96875 17.90625 C 3.957031 17.917969 3.949219 17.925781 3.9375 17.9375 C 3.082031 18.671875 2.460938 19.691406 2.21875 20.90625 C 2.21875 20.917969 2.21875 20.925781 2.21875 20.9375 L 0.90625 28.9375 C 0.90625 28.957031 0.90625 28.980469 0.90625 29 C 0.761719 30.574219 1.800781 32.082031 3.40625 32.375 C 5.015625 32.667969 6.582031 31.574219 6.875 29.96875 L 7.9375 23.3125 L 9.03125 22.4375 L 7.84375 26.75 C 7.507813 27.988281 7.398438 29.382813 7.625 30.75 L 8.5625 36.78125 L 3.4375 44.96875 L 3.46875 44.96875 C 2.507813 46.480469 2.914063 48.425781 4.3125 49.40625 C 4.332031 49.417969 4.355469 49.429688 4.375 49.4375 C 5.910156 50.414063 7.9375 50.011719 8.84375 48.5 C 8.855469 48.5 8.863281 48.5 8.875 48.5 L 14.5625 38.90625 C 14.585938 38.867188 14.605469 38.824219 14.625 38.78125 C 14.847656 38.265625 14.871094 37.640625 14.9375 37.03125 L 15.65625 38.03125 L 17 47.25 C 17.285156 48.957031 18.878906 50.296875 20.65625 50 C 22.351563 49.71875 23.648438 48.140625 23.375 46.375 L 23.40625 46.375 L 22.09375 36.0625 C 21.96875 35.175781 21.597656 34.363281 21.125 33.65625 L 19.34375 30.9375 L 17.96875 28.90625 L 19.21875 24.8125 L 19.40625 25.15625 C 19.894531 26.136719 20.675781 26.917969 21.65625 27.40625 L 27.875 30.34375 C 27.8125 31.035156 28.152344 31.710938 28.8125 32.0625 L 28.84375 32.09375 L 32.59375 34.25 C 32.976563 34.480469 33.433594 34.597656 33.90625 34.53125 L 33.90625 47 C 33.90625 48.644531 35.261719 50 36.90625 50 C 38.550781 50 39.90625 48.644531 39.90625 47 L 39.90625 42.6875 L 40.90625 47.59375 C 41.207031 49.253906 42.847656 50.261719 44.46875 49.96875 C 46.128906 49.667969 47.167969 48.027344 46.875 46.40625 L 44.5625 35.375 C 45.222656 35.71875 45.988281 35.863281 46.75 35.65625 C 46.78125 35.648438 46.8125 35.636719 46.84375 35.625 C 48.386719 35.0625 49.308594 33.433594 48.875 31.84375 L 43.875 13.53125 C 43.863281 13.519531 43.855469 13.511719 43.84375 13.5 C 43.375 11.9375 41.898438 11 40.3125 11 Z M 19.5 2 C 16.464844 2 14 4.464844 14 7.5 C 14 10.535156 16.464844 13 19.5 13 C 22.535156 13 25 10.535156 25 7.5 C 25 4.464844 22.535156 2 19.5 2 Z M 39.5 2 C 41.464844 2 43 3.535156 43 5.5 C 43 7.464844 41.464844 9 39.5 9 C 37.535156 9 36 7.464844 36 5.5 C 36 3.535156 37.535156 2 39.5 2 Z M 19.5 4 C 21.464844 4 23 5.535156 23 7.5 C 23 9.464844 21.464844 11 19.5 11 C 17.535156 11 16 9.464844 16 7.5 C 16 5.535156 17.535156 4 19.5 4 Z M 38 13 L 40.3125 13 C 40.921875 13 41.789063 13.625 41.9375 14.0625 L 41.9375 14.09375 L 46.9375 32.375 C 47.105469 32.984375 46.8125 33.511719 46.15625 33.75 C 45.59375 33.859375 45.121094 33.589844 44.96875 33.03125 L 43.375 27.125 C 43.25 26.621094 42.761719 26.292969 42.246094 26.375 C 41.734375 26.457031 41.367188 26.917969 41.40625 27.4375 L 41.5 30.4375 C 41.507813 30.492188 41.515625 30.542969 41.53125 30.59375 L 44.90625 46.78125 L 44.90625 46.8125 C 44.992188 47.382813 44.652344 47.933594 44.125 48.03125 C 43.542969 48.136719 42.972656 47.757813 42.875 47.21875 C 42.875 47.207031 42.875 47.199219 42.875 47.1875 L 39.90625 32.6875 L 39.875 32.5 C 39.753906 32.019531 39.300781 31.699219 38.808594 31.746094 C 38.316406 31.792969 37.933594 32.195313 37.90625 32.6875 L 37.90625 47 C 37.90625 47.554688 37.460938 48 36.90625 48 C 36.351563 48 35.90625 47.554688 35.90625 47 L 35.90625 32.59375 L 35.9375 32.53125 L 35.90625 32.5 L 35.90625 15.09375 C 35.90625 13.941406 36.847656 13 38 13 Z M 12.875 13.84375 C 13.011719 13.855469 13.136719 13.890625 13.28125 13.9375 C 13.300781 13.949219 13.324219 13.960938 13.34375 13.96875 L 18.9375 15.46875 C 18.949219 15.46875 18.957031 15.46875 18.96875 15.46875 C 19.492188 15.585938 19.96875 16.0625 20.15625 16.5625 L 22.78125 23.25 C 22.859375 23.472656 23.015625 23.660156 23.21875 23.78125 L 29.5625 27.125 L 28.71875 28.5625 L 22.5625 25.59375 C 22.554688 25.589844 22.539063 25.597656 22.53125 25.59375 C 21.921875 25.285156 21.496094 24.863281 21.1875 24.25 L 19.90625 21.65625 C 19.730469 21.273438 19.332031 21.039063 18.914063 21.074219 C 18.492188 21.109375 18.140625 21.40625 18.03125 21.8125 L 15.9375 28.8125 C 15.851563 29.097656 15.898438 29.40625 16.0625 29.65625 L 17.65625 32.0625 L 19.46875 34.75 C 19.789063 35.230469 20.015625 35.808594 20.09375 36.3125 L 21.40625 46.625 C 21.40625 46.636719 21.40625 46.644531 21.40625 46.65625 C 21.511719 47.277344 21.039063 47.882813 20.34375 48 C 19.730469 48.101563 19.128906 47.648438 19 46.96875 L 19 46.9375 L 17.59375 37.46875 C 17.574219 37.300781 17.507813 37.136719 17.40625 37 L 14.59375 33.21875 C 14.320313 32.875 13.859375 32.75 13.449219 32.90625 C 13.042969 33.066406 12.785156 33.46875 12.8125 33.90625 L 13.09375 36.40625 C 13.105469 36.417969 13.113281 36.425781 13.125 36.4375 C 13.183594 36.851563 13.039063 37.359375 12.78125 37.96875 C 12.777344 37.980469 12.785156 37.988281 12.78125 38 L 7.125 47.5 C 6.824219 47.972656 6.09375 48.167969 5.4375 47.75 C 4.871094 47.328125 4.726563 46.707031 5.15625 46.03125 L 10.4375 37.53125 C 10.570313 37.328125 10.625 37.085938 10.59375 36.84375 L 9.59375 30.4375 C 9.421875 29.40625 9.488281 28.210938 9.75 27.25 L 11.75 19.96875 C 11.859375 19.550781 11.6875 19.113281 11.324219 18.878906 C 10.964844 18.644531 10.492188 18.667969 10.15625 18.9375 L 6.375 22.03125 C 6.175781 22.183594 6.042969 22.40625 6 22.65625 L 4.90625 29.625 L 4.90625 29.65625 C 4.789063 30.230469 4.363281 30.511719 3.78125 30.40625 C 3.183594 30.296875 2.847656 29.8125 2.90625 29.1875 L 2.875 29.1875 L 4.1875 21.28125 L 4.1875 21.25 C 4.347656 20.480469 4.710938 19.929688 5.25 19.46875 L 11.71875 14.28125 C 11.730469 14.269531 11.738281 14.261719 11.75 14.25 C 12.097656 13.953125 12.46875 13.8125 12.875 13.84375 Z M 31.59375 27.59375 C 31.609375 27.574219 31.617188 27.601563 31.625 27.59375 L 33.90625 28.875 L 33.90625 32.03125 L 33.59375 32.53125 L 29.90625 30.40625 Z"/></svg>