<svg xmlns="http://www.w3.org/2000/svg"  viewBox="0 0 48 48" width="48px" height="48px"><path fill="#e65100" d="M35,36H7c-1.657,0-3-1.343-3-3V9c0-1.657,1.343-3,3-3h28c1.657,0,3,1.343,3,3v24	C38,34.657,36.657,36,35,36z"/><path fill="#ff7043" d="M4,15h34v2H4V15z M4,25h34v2H4V25z"/><rect width="2" height="11" x="20" y="16" fill="#ff7043"/><rect width="2" height="10" x="14" y="26" fill="#ff7043"/><rect width="2" height="10" x="13" y="6" fill="#ff7043"/><rect width="2" height="10" x="27" y="6" fill="#e65100"/><rect width="2" height="10" x="27" y="26" fill="#ff7043"/><path fill="#b0bec5" d="M40,19h-4v-3c0-0.552,0.448-1,1-1h2c0.552,0,1,0.448,1,1V19z"/><path fill="#cfd8dc" d="M43,23H33v-1.601C33,19.522,34.522,18,36.399,18h3.202C41.478,18,43,19.522,43,21.399V23z"/><rect width="12" height="17.234" x="32" y="23" fill="#29b6f6"/><path fill="#90a4ae" d="M36.5,16H36v1h0.5c0.276,0,0.5-0.224,0.5-0.5C37,16.224,36.776,16,36.5,16z"/><circle cx="26" cy="16" r="3" fill="#29b6f6"/><circle cx="27.5" cy="13.5" r="2.5" fill="#29b6f6"/><polygon fill="#29b6f6" points="28.029,12.287 34.303,16 27.953,19.741"/><circle cx="27.5" cy="18.5" r="2.5" fill="#29b6f6"/><line x1="32" x2="44" y1="22" y2="22" fill="none" stroke="#b0bec5" stroke-linecap="round" stroke-miterlimit="10" stroke-width="2"/><line x1="32" x2="44" y1="41.16" y2="41.16" fill="none" stroke="#b0bec5" stroke-linecap="round" stroke-linejoin="round" stroke-miterlimit="10" stroke-width="2"/></svg>