<svg xmlns="http://www.w3.org/2000/svg"  viewBox="0 0 48 48" width="48px" height="48px"><path fill="#455a64" d="M27,19.182C27,19.673,27.32,20,27.8,20h6.4c0.48,0,0.8-0.327,0.8-0.818v-7.364	C35,11.327,34.68,11,34.2,11h-6.4c-0.48,0-0.8,0.327-0.8,0.818V19.182z"/><path fill="#607d8b" d="M33,11.821C33,11.329,33.329,11,33.821,11h1.643c1.15,0,2.136,0.986,2.218,1.068l1.643,1.643	C42.118,16.421,44,21.296,44,36h-2c0-11-1-16-3-20l-6-1V11.821z"/><path fill="#263238" d="M24,12h3v6l-3-4"/><path fill="#37474f" d="M35,14.982C35,12.242,37.242,10,39.982,10c2.74,0,4.982,2.242,4.982,4.982s-2.242,4.982-4.982,4.982	C37.242,19.964,35,17.722,35,14.982z M37,14.982c0,1.64,1.342,2.982,2.982,2.982c1.64,0,2.982-1.342,2.982-2.982	S41.622,12,39.982,12C38.342,12,37,13.342,37,14.982z"/><path fill="#455a64" d="M16,46h-6c-1.105,0-2-0.895-2-2V29h10v15C18,45.105,17.105,46,16,46z"/><path fill="#9fa8da" d="M16,25c0,1.1,0.9,2,2,2H8V9l2.06-4.11L12,1c1.88,1.25,3.38,2.93,4.41,4.86 C17.44,7.78,18,9.96,18,12.21V23C16.9,23,16,23.9,16,25z"/><path fill="#c5cae9" d="M18,12.21V23c-1.1,0-2,0.9-2,2h-1c-0.55,0-1-0.45-1-1V11.13c0-2.42-1.97-4.72-3.94-6.24L12,1 c1.88,1.25,3.38,2.93,4.41,4.86C17.44,7.78,18,9.96,18,12.21z"/><path fill="#37474f" d="M18.5,30h-11C6.672,30,6,29.328,6,28.5v0C6,27.672,6.672,27,7.5,27h11c0.828,0,1.5,0.672,1.5,1.5v0	C20,29.328,19.328,30,18.5,30z"/><circle cx="13" cy="35" r="1" fill="#cfd8dc"/><circle cx="13" cy="41" r="1" fill="#cfd8dc"/><path fill="#827717" d="M40,31c0,1.58-0.14,2.89-0.4,4h-0.03c-0.55,0-1,0.45-1,1c0,0.34,0.17,0.64,0.43,0.82	c-0.02,0.06-0.04,0.12-0.07,0.18c-0.88,1.95-2.25,3.32-3.93,5c0,0-0.44,0-1.06,0H32c0,0-0.43,0-1,0h-2.94C27.44,42,27,42,27,42	c-1.68-1.68-3.05-3.05-3.93-5c-0.03-0.06-0.06-0.12-0.08-0.19c0.25-0.19,0.41-0.48,0.41-0.81c0-0.55-0.45-1-1-1	c-0.26-1.11-0.4-2.42-0.4-4c0-0.35,0-0.68,0.01-1c0.55-0.01,0.99-0.45,0.99-1c0-0.49-0.36-0.9-0.83-0.98c0-0.01,0-0.01,0-0.02	c0.4-2.87,1.52-4.23,3.83-5l1-4h8l1,4c2.31,0.77,3.43,2.13,3.83,5c0,0.01,0,0.01,0,0.02C39.36,28.1,39,28.51,39,29	c0,0.55,0.44,0.99,0.99,1C40,30.32,40,30.65,40,31z"/><path fill="#63590d" d="M39.99,30H22.01c0.55-0.01,0.99-0.45,0.99-1c0-0.49-0.36-0.9-0.83-0.98c0-0.01,0-0.01,0-0.02h17.66	c0,0.01,0,0.01,0,0.02C39.36,28.1,39,28.51,39,29C39,29.55,39.44,29.99,39.99,30z"/><path fill="#63590d" d="M39,36.82c-0.02,0.06-0.04,0.12-0.07,0.18H23.07c-0.03-0.06-0.06-0.12-0.08-0.19	c0.25-0.19,0.41-0.48,0.41-0.81c0-0.55-0.45-1-1-1h17.17c-0.55,0-1,0.45-1,1C38.57,36.34,38.74,36.64,39,36.82z"/><polygon fill="#63590d" points="36,23 26,23 26.5,21 35.5,21"/><g><path fill="#63590d" d="M35.89,30c-0.06-0.68-0.15-1.35-0.26-2c-0.34-1.97-0.9-3.74-1.69-5c-0.77-1.24-1.75-2-2.94-2 s-2.17,0.76-2.94,2c-0.79,1.26-1.35,3.03-1.69,5c-0.11,0.65-0.2,1.32-0.26,2C26.04,30.82,26,31.66,26,32.5 c0,0.84,0.04,1.68,0.11,2.5c0.06,0.68,0.15,1.35,0.26,2c0.34,1.97,0.9,3.74,1.69,5H31c-0.86,0-2.01-1.86-2.6-5 c-0.12-0.62-0.22-1.29-0.28-2C28.04,34.22,28,33.38,28,32.5s0.04-1.72,0.12-2.5c0.06-0.71,0.16-1.38,0.28-2c0.59-3.14,1.74-5,2.6-5 s2.01,1.86,2.6,5c0.12,0.62,0.22,1.29,0.28,2c0.08,0.78,0.12,1.62,0.12,2.5s-0.04,1.72-0.12,2.5c-0.06,0.71-0.16,1.38-0.28,2 c-0.59,3.14-1.74,5-2.6,5c0.57,0,1,0,1,0h1.94c0.79-1.26,1.35-3.03,1.69-5c0.11-0.65,0.2-1.32,0.26-2c0.07-0.82,0.11-1.66,0.11-2.5 C36,31.66,35.96,30.82,35.89,30z"/></g></svg>